# xmcd CD database file
#
# Track frame offsets:
#	150
#	19730
#	29023
#	38610
#	48201
#	57449
#	66580
#	76318
#	87255
#	97916
#	108176
#	118153
#	129388
#	138641
#	148607
#	159130
#	169106
#	179347
#
# Disc length: 2666 seconds
#
# Revision: 0
# Processed by: cddbd v1.5.1PL2 Copyright (c) Steve Scherf et al.
# Submitted via: CDex 1.51
#
DISCID=f00a6812
DTITLE=BLACK PACKAGE - オレ巫女 同梱特典 サウンドトラック
DYEAR=2005
DGENRE=Game
TTITLE0=大野まりな/世界でひとつのお守り
TTITLE1=廻る風車
TTITLE2=オマセなあの子
TTITLE3=背伸びをして届く距離
TTITLE4=胸騒ぎ
TTITLE5=ざわつくココロ
TTITLE6=伝えるキモチ
TTITLE7=二人の未来
TTITLE8=摩天楼に陽は落ちて
TTITLE9=ナイトクルーズ
TTITLE10=玻璃のくちづけ
TTITLE11=驟雨
TTITLE12=ルーズに恋して
TTITLE13=ぬくもりと優しさに包まれて
TTITLE14=結ばれる誓
TTITLE15=セピアの記憶
TTITLE16=気楽にいこうよ
TTITLE17=みとせのりこ/奇蹟の光
EXTD=YEAR: 2005
EXTT0=
EXTT1=
EXTT2=
EXTT3=
EXTT4=
EXTT5=
EXTT6=
EXTT7=
EXTT8=
EXTT9=
EXTT10=
EXTT11=
EXTT12=
EXTT13=
EXTT14=
EXTT15=
EXTT16=
EXTT17=
PLAYORDER=
